<svg width="45" height="45" viewBox="0 0 500 500" fill="none" xmlns="http://www.w3.org/2000/svg">
<path d="M83.3613 334V173.746H85.7051L108.85 211.246V334H83.3613ZM83.3613 145.328V128.922H105.334L213.732 302.652V334H201.135L83.3613 145.328ZM188.244 236.148V128.922H213.732V273.648H211.389L188.244 236.148ZM238.342 334V187.516H240.979L263.83 243.18V334H238.342ZM238.342 145.035V128.922H259.143L326.525 292.105L374.572 183.414H377.502V240.25L336.193 334H316.857L238.342 145.035ZM392.15 334V128.922H417.639V334H392.15Z" fill="black"/>
<path d="M83.3613 334V173.746H85.7051L108.85 211.246V334H83.3613ZM83.3613 145.328V128.922H105.334L213.732 302.652V334H201.135L83.3613 145.328ZM188.244 236.148V128.922H213.732V273.648H211.389L188.244 236.148ZM238.342 334V187.516H240.979L263.83 243.18V334H238.342ZM238.342 145.035V128.922H259.143L326.525 292.105L374.572 183.414H377.502V240.25L336.193 334H316.857L238.342 145.035ZM392.15 334V128.922H417.639V334H392.15Z" fill="url(#paint0_linear)"/>
<circle cx="250" cy="250" r="235" stroke="#66BEB2" stroke-width="30"/>
<circle cx="250" cy="250" r="235" stroke="url(#paint1_linear)" stroke-width="30"/>
<defs>
<linearGradient id="paint0_linear" x1="70" y1="126" x2="431.5" y2="374" gradientUnits="userSpaceOnUse">
<stop stop-color="#66BEB2"/>
<stop offset="1" stop-color="#F99192"/>
</linearGradient>
<linearGradient id="paint1_linear" x1="92.5" y1="68" x2="411.5" y2="445.5" gradientUnits="userSpaceOnUse">
<stop stop-color="#F99192"/>
<stop offset="0.787882" stop-color="#66BEB2"/>
</linearGradient>
</defs>
</svg>
